<?xml version="1.0" standalone="no"?>
<!DOCTYPE svg PUBLIC "-//W3C//DTD SVG 20010904//EN"
 "http://www.w3.org/TR/2001/REC-SVG-20010904/DTD/svg10.dtd">
<svg version="1.0" xmlns="http://www.w3.org/2000/svg"
 width="2295.000000pt" height="2295.000000pt" viewBox="0 0 2295.000000 2295.000000"
 preserveAspectRatio="xMidYMid meet">
<metadata>
Created by potrace 1.14, written by Peter Selinger 2001-2017
</metadata>
<g transform="translate(0.000000,2295.000000) scale(0.100000,-0.100000)"
fill="#000000" stroke="none">
<path d="M11460 18734 c-295 -64 -451 -364 -340 -656 133 -354 673 -401 880
-78 91 141 95 366 10 515 -102 178 -327 268 -550 219z m211 -200 c108 -32 189
-148 189 -269 0 -69 -28 -143 -71 -190 -131 -142 -364 -117 -455 47 -26 48
-29 62 -29 143 0 81 3 95 30 144 35 63 77 98 148 122 65 23 118 24 188 3z"/>
<path d="M12560 18687 c0 -1 -31 -204 -70 -451 -38 -247 -70 -452 -70 -456 0
-8 198 -36 204 -29 2 2 13 64 24 138 12 73 23 135 25 137 3 4 129 -16 135 -21
2 -1 28 -67 58 -146 30 -79 59 -149 65 -155 5 -6 48 -16 96 -23 48 -7 100 -15
115 -18 l28 -5 -70 172 c-39 94 -70 173 -70 175 0 2 15 9 34 15 51 17 122 84
151 145 38 78 45 190 16 265 -35 89 -96 145 -196 178 -64 22 -475 90 -475 79z
m297 -221 c45 -8 95 -22 112 -30 62 -33 84 -99 56 -172 -31 -81 -85 -97 -247
-72 -90 13 -86 3 -63 148 21 133 23 140 43 140 9 0 54 -7 99 -14z"/>
<path d="M10345 18608 c-148 -28 -271 -52 -273 -53 -4 -3 159 -899 165 -905 4
-5 193 26 200 33 2 3 -8 67 -22 142 -14 76 -25 146 -25 155 0 14 28 22 160 45
183 33 170 20 146 145 -14 75 9 71 -199 34 -77 -14 -141 -24 -143 -21 -5 5
-45 219 -41 223 1 1 81 17 177 34 96 17 177 34 179 36 4 4 -15 131 -25 167 -6
21 23 24 -299 -35z"/>
<path d="M8738 18137 c-146 -62 -270 -115 -273 -119 -6 -5 311 -782 344 -845
4 -8 97 27 290 108 156 65 285 120 286 121 6 7 -61 158 -70 158 -5 0 -92 -34
-192 -76 -101 -42 -185 -75 -186 -73 -9 11 -78 181 -75 184 2 1 75 33 163 69
87 37 161 69 163 71 7 6 -59 165 -67 161 -40 -24 -326 -135 -331 -129 -8 9
-70 154 -70 164 0 3 79 39 176 79 97 40 178 78 180 84 5 13 -51 150 -63 153
-4 1 -128 -49 -275 -110z"/>
<path d="M14258 17822 c-185 -191 -337 -351 -338 -357 -1 -5 41 -28 94 -49
l97 -40 62 62 62 61 165 -69 165 -68 3 -89 3 -89 101 -42 c56 -23 103 -41 104
-39 1 1 6 225 10 498 l7 496 -88 36 c-48 21 -92 37 -98 37 -7 0 -163 -157
-349 -348z m335 -144 l-8 -147 -85 36 c-47 19 -100 41 -119 49 l-33 14 123
132 124 131 3 -34 c1 -19 -1 -100 -5 -181z"/>
<path d="M15285 17349 c-136 -214 -246 -392 -244 -393 39 -32 172 -106 178
-100 5 5 72 111 151 237 79 125 144 226 146 224 2 -2 13 -158 25 -348 11 -189
22 -344 22 -345 1 0 32 -19 68 -42 36 -23 70 -42 76 -42 6 0 106 152 224 338
117 185 227 360 245 387 l32 51 -88 56 -88 56 -148 -234 c-81 -129 -149 -232
-152 -229 -3 2 -14 156 -26 342 l-21 337 -70 48 c-38 26 -73 47 -76 47 -4 1
-118 -175 -254 -390z"/>
<path d="M7844 17670 c-23 -5 -65 -20 -94 -35 -89 -45 -381 -227 -378 -235 8
-23 474 -780 480 -780 3 0 45 23 92 51 l86 52 -22 36 c-12 20 -43 70 -68 111
-26 41 -50 80 -53 87 -5 8 13 25 48 48 30 19 59 35 62 35 4 0 69 -34 144 -75
76 -41 143 -75 149 -75 14 0 200 112 200 120 0 3 -72 42 -160 88 -88 46 -160
86 -160 88 0 3 10 24 22 47 34 64 32 173 -4 247 -72 147 -204 220 -344 190z
m102 -215 c30 -19 64 -85 64 -123 0 -57 -61 -118 -191 -191 l-36 -21 -73 121
c-40 66 -71 121 -69 123 33 24 153 93 179 103 41 15 92 10 126 -12z"/>
<path d="M6692 16886 c-155 -133 -290 -249 -299 -258 -15 -16 -12 -22 42 -87
31 -39 61 -71 66 -71 5 0 56 41 113 90 58 50 107 90 110 90 2 0 107 -120 232
-267 125 -148 231 -272 235 -277 4 -4 44 22 88 60 72 59 79 69 67 83 -84 95
-456 536 -456 541 0 3 49 47 110 98 l110 94 -62 71 c-34 40 -64 73 -67 74 -3
1 -133 -108 -289 -241z"/>
<path d="M16340 16648 c-157 -186 -291 -347 -297 -356 -11 -16 -3 -26 62 -80
41 -34 78 -62 83 -62 12 0 587 687 587 701 0 6 -34 39 -75 74 l-75 63 -285
-340z"/>
<path d="M12285 16676 c-5 -2 -30 -9 -55 -17 -102 -30 -291 -182 -390 -314
-90 -121 -150 -274 -170 -442 -15 -121 -3 -232 38 -348 47 -134 103 -177 231
-177 64 0 86 4 131 27 81 41 138 83 200 145 106 108 169 204 210 320 41 116
49 170 50 333 0 162 -12 237 -57 349 -17 44 -56 94 -83 108 -18 9 -91 20 -105
16z"/>
<path d="M16844 16189 c-186 -165 -340 -304 -341 -307 -1 -4 28 -41 66 -81
l68 -75 204 181 c112 100 205 180 207 178 2 -2 -17 -87 -43 -189 l-48 -185 48
-55 c26 -31 53 -56 59 -56 6 1 92 11 191 24 99 13 181 22 183 21 4 -4 -32 -37
-238 -220 -85 -75 -157 -141 -158 -146 -2 -5 26 -43 63 -83 l66 -75 345 306
c189 168 344 308 344 312 0 3 -26 34 -58 69 l-57 63 -283 -37 c-155 -20 -284
-35 -287 -33 -2 3 28 130 66 283 l70 279 -23 26 c-50 58 -92 101 -98 101 -4 0
-159 -135 -346 -301z"/>
<path d="M5970 16195 c-61 -75 -62 -77 -44 -95 11 -9 106 -90 212 -180 106
-89 192 -163 190 -165 -2 -1 -142 8 -313 21 -170 13 -326 23 -345 23 -31 1
-41 -7 -89 -65 -52 -64 -53 -66 -35 -84 26 -24 667 -565 681 -573 6 -4 40 29
76 72 l66 79 -212 178 -212 179 40 3 c22 1 177 -9 345 -22 168 -13 305 -23
305 -23 1 1 27 32 58 68 l57 66 -346 292 c-190 161 -351 294 -358 297 -7 3
-41 -29 -76 -71z"/>
<path d="M10775 16156 c-56 -34 -68 -60 -91 -196 -26 -162 -14 -365 32 -510
67 -211 276 -448 452 -515 156 -58 299 -23 376 93 133 202 55 611 -161 842
-18 19 -33 38 -33 41 0 11 -162 143 -215 176 -44 27 -73 40 -183 84 -46 18
-134 10 -177 -15z"/>
<path d="M12645 15429 c-100 -10 -217 -38 -285 -66 -198 -84 -350 -212 -416
-349 -29 -62 -34 -81 -34 -146 0 -65 4 -81 26 -114 55 -81 149 -137 282 -169
59 -15 98 -17 215 -12 135 6 179 14 292 52 212 72 451 288 509 459 66 193 -59
314 -359 346 -100 11 -116 11 -230 -1z"/>
<path d="M5216 15218 c-115 -183 -295 -493 -289 -498 14 -14 774 -470 782
-470 6 0 309 493 319 521 3 7 -14 19 -110 77 l-36 23 -98 -163 c-53 -90 -102
-169 -109 -177 -11 -11 -26 -5 -94 35 -45 27 -81 53 -81 57 0 5 41 77 90 159
50 83 90 151 88 153 -27 20 -143 83 -148 80 -4 -3 -33 -48 -65 -102 -32 -54
-73 -122 -91 -150 l-34 -53 -75 46 c-41 25 -77 49 -79 53 -3 4 40 83 95 175
56 92 99 169 97 171 -8 7 -139 85 -143 85 -2 0 -11 -10 -19 -22z"/>
<path d="M17830 14971 c-256 -43 -470 -79 -477 -82 -7 -2 10 -40 45 -98 l56
-93 35 6 c20 3 59 9 87 12 l51 6 92 -151 c50 -84 91 -156 91 -160 0 -5 -23
-38 -50 -74 l-51 -65 58 -96 c32 -52 61 -92 64 -88 12 13 585 767 592 779 10
16 -93 183 -113 182 -8 0 -224 -36 -480 -78z m314 -153 c-24 -39 -207 -268
-214 -268 -9 0 -135 209 -129 214 3 3 293 57 342 65 5 0 5 -5 1 -11z"/>
<path d="M10305 14430 c-178 -15 -285 -31 -430 -65 -128 -30 -140 -33 -210
-54 -124 -39 -145 -47 -278 -105 -32 -14 -59 -26 -62 -26 -10 0 -228 -128
-285 -168 -303 -213 -563 -540 -717 -902 -8 -19 -21 -50 -29 -68 -53 -122
-115 -314 -149 -457 -53 -225 -59 -258 -75 -365 -6 -41 -15 -97 -21 -125 -45
-242 -72 -875 -50 -1210 13 -207 24 -312 53 -515 11 -80 23 -161 25 -180 14
-135 88 -453 154 -665 71 -227 86 -269 139 -400 27 -65 86 -184 104 -208 35
-47 77 -67 141 -67 69 0 144 37 253 123 37 30 123 94 192 143 195 139 156 113
415 280 76 49 391 214 409 214 3 0 31 12 63 26 102 46 171 75 313 128 134 51
154 65 174 122 9 26 16 61 16 78 0 31 13 78 36 134 21 50 18 71 -13 84 -366
152 -659 395 -919 763 -115 162 -262 420 -314 550 -4 11 -15 36 -23 55 -37 89
-108 315 -128 405 -68 319 -75 551 -23 782 9 37 19 85 23 106 13 59 66 159
106 197 32 31 41 35 93 35 68 0 112 -26 138 -81 17 -36 15 -122 -5 -214 -51
-238 -60 -367 -37 -525 9 -60 22 -128 27 -150 6 -22 15 -56 20 -75 30 -119 72
-249 110 -340 44 -108 147 -315 180 -362 11 -14 19 -29 19 -32 0 -3 21 -36 47
-74 165 -238 368 -448 546 -566 63 -42 118 -76 121 -76 3 0 29 -11 58 -24 107
-49 180 -67 268 -68 73 -1 93 3 142 26 111 53 159 137 206 361 20 98 23 539 4
648 -6 37 -17 100 -23 140 -11 75 -32 174 -50 242 -6 22 -15 58 -21 80 -6 22
-14 51 -18 65 -5 14 -20 66 -35 115 -15 50 -31 99 -35 110 -43 112 -179 452
-198 495 -13 30 -31 71 -40 90 -8 19 -44 96 -79 170 -35 74 -68 144 -73 155
-5 11 -20 46 -34 77 -35 79 -43 172 -19 218 55 106 193 106 271 0 118 -160
391 -749 512 -1104 86 -254 127 -410 169 -646 33 -187 56 -516 46 -662 -6 -84
-4 -98 8 -98 9 0 28 26 44 58 39 79 195 235 289 289 71 40 166 78 234 93 170
38 213 45 450 70 185 19 266 33 468 81 169 40 287 82 424 150 151 74 239 133
343 225 74 65 215 222 215 238 0 3 15 27 34 53 50 70 130 235 164 338 68 206
82 276 82 409 0 103 -2 119 -26 164 -42 81 -120 124 -259 144 -33 5 -188 13
-345 18 -864 28 -945 35 -1145 97 -175 54 -333 161 -445 299 -30 37 -68 82
-83 98 -16 17 -41 47 -55 66 -37 50 -187 195 -252 244 -150 113 -273 178 -450
236 -107 35 -171 51 -325 80 -77 14 -440 21 -570 10z m1332 -842 c94 -25 183
-147 183 -250 0 -81 -53 -172 -128 -219 -40 -25 -56 -29 -119 -29 -54 0 -84 5
-113 20 -108 55 -164 174 -136 293 34 147 165 224 313 185z"/>
<path d="M4810 14146 c-116 -31 -236 -127 -293 -233 -33 -61 -67 -189 -67
-249 0 -215 155 -400 385 -459 255 -65 493 81 571 350 36 128 13 290 -57 392
-35 51 -108 123 -124 123 -7 0 -28 -43 -49 -95 l-38 -94 26 -34 c40 -52 56
-101 56 -170 0 -176 -157 -306 -323 -267 -201 48 -293 225 -206 399 42 84 105
130 200 145 35 6 37 9 72 99 21 51 37 96 37 100 0 11 -141 7 -190 -7z"/>
<path d="M18381 13985 c-233 -96 -426 -176 -428 -179 -6 -5 213 -545 226 -559
6 -6 155 47 173 62 4 4 -24 83 -62 175 -38 93 -72 177 -75 186 -5 14 51 40
330 155 184 76 335 141 335 145 0 4 -17 48 -38 98 l-38 90 -423 -173z"/>
<path d="M4535 12317 c-94 -31 -166 -93 -207 -175 -19 -40 -23 -63 -23 -147 0
-92 2 -104 29 -153 37 -66 92 -117 163 -149 47 -22 65 -25 141 -21 65 2 99 9
134 26 62 31 121 89 155 154 24 46 27 65 28 143 0 79 -4 97 -28 146 -32 66
-100 132 -164 161 -57 25 -174 33 -228 15z"/>
<path d="M18550 12254 c-250 -116 -254 -470 -6 -596 54 -28 70 -32 146 -32 76
0 92 4 146 32 243 124 246 465 5 590 -57 29 -71 32 -149 32 -72 0 -96 -5 -142
-26z"/>
<path d="M15113 11185 c-174 -43 -246 -151 -323 -490 -18 -77 -37 -156 -42
-175 -5 -19 -14 -53 -19 -75 -13 -53 -49 -175 -59 -200 -5 -11 -25 -65 -46
-120 -134 -359 -332 -665 -604 -933 -81 -80 -288 -241 -372 -289 -229 -131
-427 -210 -713 -282 -100 -26 -135 -33 -275 -62 -69 -14 -249 -49 -305 -59
-281 -49 -561 -174 -775 -345 -119 -95 -154 -115 -204 -115 -51 0 -106 28
-131 67 -25 37 -30 130 -11 175 17 39 121 151 196 210 46 36 185 128 193 128
3 0 31 15 64 33 124 71 350 150 528 187 33 7 74 16 90 20 17 4 73 16 125 25
52 9 105 21 118 26 13 5 34 9 47 9 32 0 231 53 300 80 313 122 473 236 563
401 51 91 65 145 65 244 0 95 -18 149 -67 203 -37 40 -127 82 -178 82 -56 0
-272 -61 -348 -99 -49 -24 -421 -131 -457 -131 -9 0 -30 -4 -47 -9 -101 -30
-390 -63 -706 -81 -215 -12 -408 -28 -420 -35 -5 -3 -49 -10 -97 -15 -131 -15
-279 -40 -398 -69 -22 -6 -53 -13 -70 -16 -58 -11 -270 -71 -300 -85 -11 -5
-40 -16 -65 -24 -25 -8 -58 -20 -75 -26 -16 -7 -39 -16 -50 -20 -11 -4 -36
-15 -57 -24 -20 -9 -39 -16 -42 -16 -19 0 -344 -158 -393 -192 -23 -15 -44
-28 -47 -28 -9 0 -171 -104 -174 -112 -2 -5 -8 -8 -13 -8 -5 0 -46 -26 -91
-57 -384 -263 -854 -724 -1023 -1004 -74 -123 -95 -191 -95 -313 0 -145 32
-230 138 -372 142 -188 460 -459 682 -581 249 -137 355 -174 515 -181 153 -5
248 25 570 183 323 158 348 169 630 286 51 21 351 114 415 129 31 7 218 54
320 79 88 23 281 61 405 81 28 4 91 15 140 25 50 10 110 21 135 26 25 5 70 13
100 19 68 12 105 20 250 55 63 15 131 31 150 35 32 7 104 28 220 65 85 26 255
87 315 112 216 90 587 283 708 369 26 19 50 34 53 34 6 0 103 68 114 80 3 3
48 37 100 76 251 188 442 372 647 620 79 96 231 317 288 419 15 28 41 73 57
100 131 226 281 601 348 865 4 19 13 53 18 75 31 125 44 250 40 407 -3 152 -6
169 -36 255 -17 51 -44 112 -59 135 -73 113 -179 192 -298 224 -65 16 -91 16
-162 -1z"/>
<path d="M4280 10763 c9 -54 19 -104 23 -109 3 -6 40 -17 81 -24 53 -9 77 -18
80 -29 13 -45 57 -325 52 -336 -2 -7 -34 -30 -71 -51 -53 -31 -65 -43 -61 -59
2 -11 10 -54 17 -95 6 -41 15 -79 20 -84 5 -6 621 362 807 482 11 7 10 26 -3
103 -9 52 -18 96 -20 98 -3 2 -204 46 -447 97 -244 52 -455 96 -469 99 l-26 6
17 -98z m520 -208 c74 -14 143 -29 154 -32 13 -4 -23 -30 -130 -94 -81 -48
-149 -87 -150 -86 -3 3 -44 228 -44 240 0 5 8 6 18 3 9 -2 78 -17 152 -31z"/>
<path d="M18222 10574 c-12 -53 -21 -98 -20 -99 2 -1 113 -25 248 -54 135 -29
253 -55 264 -58 12 -3 -49 -35 -185 -95 -112 -49 -251 -110 -308 -136 l-105
-47 -17 -80 c-10 -44 -15 -83 -11 -86 9 -7 864 -191 868 -187 4 5 44 191 41
193 -1 1 -112 26 -247 54 -135 29 -253 55 -263 59 -14 6 66 45 289 142 l308
135 17 80 c10 44 15 83 11 86 -4 3 -191 45 -417 93 -225 48 -419 90 -431 93
-18 4 -22 -5 -42 -93z"/>
<path d="M5137 9803 c-63 -24 -112 -64 -140 -116 -20 -39 -22 -55 -23 -230 0
-172 -2 -190 -21 -215 -45 -61 -115 -51 -158 23 -59 99 -38 193 52 240 2 1
-11 43 -28 94 -28 83 -33 91 -53 85 -67 -20 -144 -105 -166 -184 -49 -176 75
-448 223 -489 62 -18 146 -9 199 21 102 57 134 150 124 359 -6 110 -4 144 8
172 40 97 152 62 186 -57 20 -73 -1 -133 -57 -165 -16 -9 -15 -16 12 -100 16
-50 34 -91 40 -91 6 0 32 13 58 30 50 32 101 101 117 160 42 149 -54 386 -183
452 -56 28 -131 32 -190 11z"/>
<path d="M18111 9464 c-277 -74 -438 -421 -315 -680 52 -110 168 -207 297
-246 54 -16 87 -20 161 -16 83 3 102 8 169 41 128 63 218 179 257 333 31 121
23 214 -28 324 -85 182 -342 298 -541 244z m232 -224 c56 -28 110 -77 134
-123 28 -51 25 -179 -5 -237 -55 -105 -130 -154 -237 -154 -62 0 -78 4 -135
35 -108 59 -158 146 -147 257 10 99 75 193 161 233 58 27 164 22 229 -11z"/>
<path d="M5492 8845 c-86 -44 -131 -120 -132 -225 0 -30 12 -111 26 -180 21
-104 24 -131 15 -162 -30 -98 -136 -86 -191 21 -40 79 -35 139 15 185 l26 24
-43 86 c-23 47 -46 86 -49 86 -25 0 -98 -73 -123 -123 -63 -122 -22 -303 99
-445 102 -118 259 -134 373 -37 79 69 95 181 53 379 -24 112 -26 145 -10 180
14 30 59 51 92 42 60 -15 126 -130 111 -192 -4 -16 -20 -43 -36 -60 l-29 -30
43 -82 c24 -45 48 -82 53 -82 21 0 86 62 113 108 24 42 27 56 27 137 -1 109
-24 177 -93 268 -66 86 -125 121 -216 125 -61 3 -78 0 -124 -23z"/>
<path d="M17410 8362 c-25 -42 -45 -83 -45 -91 0 -7 171 -114 380 -236 l380
-223 26 42 c14 22 38 62 52 87 l27 45 -358 209 c-196 115 -370 217 -387 227
l-30 17 -45 -77z"/>
<path d="M5860 7804 c-195 -134 -361 -248 -368 -252 -10 -7 1 -29 43 -90 31
-45 58 -82 61 -82 6 0 707 479 723 495 11 11 4 26 -44 94 -31 44 -57 81 -58
80 -1 0 -162 -110 -357 -245z"/>
<path d="M16979 7713 c-112 -147 -217 -284 -232 -304 l-28 -37 72 -56 c39 -31
74 -56 78 -56 3 1 44 50 89 111 l84 110 36 -28 c21 -15 142 -107 271 -206 129
-98 240 -181 246 -184 12 -4 125 130 125 148 0 5 -122 101 -270 215 -149 113
-273 210 -275 215 -3 4 33 58 80 118 l85 111 -74 55 c-40 30 -75 55 -78 55 -2
0 -97 -120 -209 -267z"/>
<path d="M6454 7490 c-63 -19 -127 -73 -156 -129 -48 -92 -36 -172 53 -353 60
-124 64 -165 19 -210 -26 -25 -36 -29 -63 -24 -69 14 -147 107 -147 176 0 19
9 50 20 68 l21 34 -50 57 c-80 93 -78 92 -117 46 -36 -41 -64 -116 -64 -171 0
-92 81 -242 172 -316 132 -108 263 -116 367 -22 112 101 112 208 -4 444 -61
126 -60 183 4 210 43 17 92 -2 136 -53 56 -65 64 -138 21 -186 -14 -15 -9 -23
49 -86 l64 -70 35 37 c65 68 81 185 40 285 -38 90 -138 198 -220 239 -57 28
-134 38 -180 24z"/>
<path d="M16418 6999 c-61 -14 -150 -64 -208 -116 -209 -188 -215 -471 -13
-672 80 -79 167 -126 263 -141 293 -45 585 254 532 545 -12 61 -49 155 -61
155 -4 0 -39 -31 -79 -68 l-73 -67 12 -40 c25 -88 -8 -183 -90 -257 -134 -121
-331 -74 -420 100 -85 167 45 376 234 376 33 0 70 -6 83 -13 21 -11 29 -7 97
55 41 36 75 70 75 75 0 12 -65 44 -129 63 -58 17 -162 20 -223 5z"/>
<path d="M7126 6814 c-31 -36 -56 -69 -56 -74 0 -5 47 -48 105 -96 92 -76 104
-89 92 -103 -185 -219 -437 -522 -437 -525 0 -7 142 -126 150 -126 4 0 106
119 229 265 122 146 225 265 229 265 4 -1 54 -40 111 -89 l105 -88 59 69 c32
37 57 72 55 77 -3 9 -574 491 -582 491 -3 0 -30 -30 -60 -66z"/>
<path d="M15322 6164 c-45 -30 -82 -59 -82 -65 0 -26 183 -915 190 -922 4 -5
46 17 94 48 63 42 85 61 82 73 -16 55 -28 144 -20 152 5 4 72 49 149 98 l139
91 62 -45 c35 -24 69 -44 76 -44 7 0 50 25 96 56 l83 55 -348 246 c-191 135
-369 261 -394 279 l-45 33 -82 -55z m411 -424 c-22 -20 -195 -131 -199 -128
-4 5 -74 316 -74 330 0 4 63 -38 141 -93 77 -56 137 -105 132 -109z"/>
<path d="M7806 5840 c-125 -204 -229 -376 -232 -383 -3 -8 50 -47 148 -107 84
-51 199 -122 255 -156 l102 -63 32 52 c17 29 38 62 46 73 13 21 8 25 -154 124
-92 56 -170 104 -172 106 -5 4 93 163 101 164 4 0 70 -38 146 -85 77 -47 144
-85 150 -85 5 0 23 21 38 48 15 26 33 56 41 68 13 20 6 25 -132 109 -80 48
-148 91 -150 95 -3 4 57 108 90 158 1 1 56 -30 121 -71 66 -40 140 -86 166
-101 l47 -27 42 71 c24 40 38 75 33 79 -9 9 -437 271 -471 290 -19 9 -38 -19
-247 -359z"/>
<path d="M8718 5433 c-70 -170 -147 -356 -171 -415 l-45 -106 187 -77 c102
-42 220 -84 261 -93 198 -41 384 53 473 239 67 139 71 273 10 393 -65 128
-137 180 -395 287 -105 43 -191 79 -192 79 -1 0 -58 -138 -128 -307z m345 17
c97 -41 157 -93 187 -162 28 -66 24 -142 -13 -214 -71 -140 -198 -179 -364
-113 -42 16 -84 34 -94 39 -15 8 -7 33 75 232 51 123 96 231 99 242 4 10 13
16 20 13 6 -2 47 -19 90 -37z"/>
<path d="M14465 5688 c-28 -10 -396 -168 -403 -174 -2 -1 69 -168 158 -371 90
-202 171 -387 181 -410 l18 -42 88 39 c65 29 88 44 87 57 -1 10 -24 69 -52
130 l-51 113 44 19 c81 36 82 36 138 -6 29 -22 86 -64 127 -95 l75 -55 108 47
109 47 -139 98 c-76 53 -142 101 -146 105 -5 4 2 25 16 46 37 58 50 110 44
175 -10 113 -77 217 -169 263 -43 21 -65 26 -127 25 -42 0 -89 -5 -106 -11z
m119 -182 c39 -16 63 -46 76 -98 12 -43 1 -81 -37 -120 -30 -31 -191 -104
-203 -91 -5 4 -31 60 -59 123 l-50 115 52 24 c74 33 149 60 170 61 10 0 33 -6
51 -14z"/>
<path d="M13438 5322 c-153 -41 -278 -80 -278 -86 0 -18 222 -841 229 -848 4
-5 565 137 578 147 2 1 -38 157 -42 163 -1 1 -87 -20 -190 -48 -104 -28 -192
-47 -196 -43 -10 11 -52 173 -46 179 2 3 72 23 153 45 82 22 156 42 165 44 14
5 13 14 -5 86 -20 77 -22 80 -46 75 -14 -3 -91 -23 -171 -45 l-147 -39 -21 78
c-11 43 -21 84 -21 91 0 10 57 29 184 63 l183 48 -19 77 c-11 42 -23 79 -26
82 -4 3 -132 -28 -284 -69z"/>
<path d="M10420 5214 c0 -5 -36 -202 -80 -438 -44 -237 -77 -432 -75 -434 5
-5 189 -41 192 -38 2 2 163 867 163 876 0 4 -35 12 -77 19 -43 7 -88 15 -100
18 -13 3 -23 1 -23 -3z"/>
<path d="M12452 5135 c-200 -24 -365 -44 -366 -46 -2 -2 1 -46 7 -97 9 -76 13
-91 26 -88 26 7 261 29 265 25 2 -2 21 -156 42 -342 21 -186 41 -342 44 -346
3 -4 48 -3 100 3 l95 11 -2 30 c-1 17 -19 173 -38 348 -20 176 -35 320 -33
322 2 2 64 10 137 19 74 9 136 18 138 20 2 2 -1 41 -7 87 -5 46 -10 87 -10 91
0 10 25 13 -398 -37z"/>
<path d="M10983 4679 c-12 -244 -19 -447 -17 -451 3 -4 47 -8 99 -8 l94 0 5
53 c3 28 10 148 16 266 5 118 11 215 13 217 1 1 81 -119 177 -268 96 -150 181
-277 188 -285 9 -9 40 -13 93 -13 68 0 79 2 80 18 0 9 10 209 22 444 l22 426
-35 6 c-19 3 -65 6 -101 6 l-65 0 -13 -267 c-7 -148 -14 -269 -15 -270 -1 -1
-83 122 -182 273 -98 152 -183 278 -187 281 -5 3 -46 8 -91 10 l-81 6 -22
-444z"/>
</g>
</svg>
